# xmcd
#
# Track frame offsets: 
#        150
#        24891
#        42790
#        65091
#        84015
#        108527
#        125484
#        152108
#        165225
#        186553
#
# Disc length: 2828 seconds
#
# Revision: 0
# Processed by: cddbd v1.5.2PL0 Copyright (c) Steve Scherf et al.
# Submitted via: ExactAudioCopyFreeDBPlugin 1.0
#
DISCID=770b0a0a
DTITLE=Travis Haddix - Love Coupons
DYEAR=2014
DGENRE=Blues
TTITLE0=Love Coupons
TTITLE1=Too Much Of Everything (But You)
TTITLE2=Good Ole Monday
TTITLE3=Art To Gettin' Even
TTITLE4=Dinner With The Devil
TTITLE5=Boogie Woogie Woman
TTITLE6=Boogie With The Boogie Man
TTITLE7=Take Me If You Want To
TTITLE8=One Half Right
TTITLE9=Sweet and Sour Loving
EXTD=
EXTT0=
EXTT1=
EXTT2=
EXTT3=
EXTT4=
EXTT5=
EXTT6=
EXTT7=
EXTT8=
EXTT9=
PLAYORDER=
